<svg width="286" height="457" viewBox="0 0 286 457" fill="none" xmlns="http://www.w3.org/2000/svg">
<path d="M26 165.948V249.749C26.3288 277.44 35.3281 304.362 51.7793 326.87C68.2305 349.379 91.3387 366.386 117.975 375.588L130.519 380.131C138.899 383.149 148.101 383.149 156.481 380.131L169.025 375.588C195.661 366.386 218.769 349.379 235.221 326.87C251.672 304.362 260.671 277.44 261 249.749V165.948C260.989 162.656 259.992 159.439 258.135 156.697C256.277 153.954 253.639 151.807 250.548 150.52C216.648 136.652 180.23 129.675 143.5 130.012C106.77 129.675 70.3519 136.652 36.4519 150.52C33.3612 151.807 30.7234 153.954 28.8655 156.697C27.0076 159.439 26.0112 162.656 26 165.948Z" fill="#2E3840" stroke="#F9DBBB" stroke-width="12" stroke-linecap="round" stroke-linejoin="round"/>
<path d="M142.862 184C103.236 184 71 216.23 71 255.864C71 295.499 103.236 327.729 142.862 327.729C182.487 327.729 214.724 295.499 214.724 255.864C214.724 216.23 182.487 184 142.862 184ZM142.862 193.773C172.635 193.773 197.577 214.832 203.568 242.832H165.877C161.313 234.819 152.714 229.393 142.862 229.393C133.01 229.393 124.404 234.819 119.847 242.832H82.1485C88.1539 214.832 113.081 193.773 142.862 193.773ZM134.959 317.449C106.504 313.82 83.9958 290.855 81.0764 262.182H117.196C119.406 271.179 126.201 278.38 134.959 281.133V317.449ZM134.959 268.687C132.452 267.137 130.445 264.869 129.192 262.182C128.294 260.262 127.794 258.125 127.794 255.864C127.794 250.294 130.822 245.44 135.314 242.832C137.537 241.55 140.109 240.796 142.862 240.796C145.607 240.796 148.186 241.55 150.396 242.832C154.894 245.44 157.923 250.294 157.923 255.864C157.923 258.125 157.423 260.262 156.524 262.182C155.452 264.514 153.786 266.514 151.736 268.021C149.244 269.839 146.18 270.933 142.862 270.933C139.964 270.933 137.255 270.107 134.959 268.687ZM151.736 317.326V280.771C160.023 277.808 166.391 270.839 168.528 262.182H204.64C201.764 290.529 179.735 313.298 151.736 317.326Z" fill="#FF1616"/>
<path fill-rule="evenodd" clip-rule="evenodd" d="M143.383 253.146C149.486 250.13 226.417 210.689 226.417 139.333C226.417 90.3641 189.07 50.6667 143 50.6667C96.9303 50.6667 59.5833 90.3641 59.5833 139.333C59.5833 210.689 136.514 250.13 142.617 253.146C142.887 253.28 143.113 253.28 143.383 253.146ZM143 177.333C162.744 177.333 178.75 160.32 178.75 139.333C178.75 118.347 162.744 101.333 143 101.333C123.256 101.333 107.25 118.347 107.25 139.333C107.25 160.32 123.256 177.333 143 177.333Z" fill="#FFB81C" fill-opacity="0.98"/>
<circle cx="143.5" cy="138.5" r="39.5" fill="#F9DBBB"/>
</svg>
